<svg xmlns="http://www.w3.org/2000/svg" fill="none" viewBox="0 0 14 14">
  <g>
    <path stroke="currentColor" stroke-linecap="round" stroke-linejoin="round" d="M11.0527 7.94141c0.1403 0.06467 0.2779 0.13428 0.4125 0.20861" stroke-width="0.7"></path>
    <path stroke="currentColor" stroke-linecap="round" stroke-linejoin="round" d="M9.18777 9.76594c0.25155 -0.4976 0.1595 -1.10497 -0.46002 -1.51759 -1.0934 -0.72824 -2.40652 -1.15265 -3.81876 -1.15265 -1.41224 0 -2.72535 0.42441 -3.81875 1.15265 -1.218983 0.81187 -0.395864 2.37775 1.06874 2.37775h5.10664" stroke-width="0.7"></path>
    <path stroke="currentColor" stroke-linecap="round" stroke-linejoin="round" d="M8.47754 5.91168c0.10843 0.0105 0.22107 0.0158 0.33783 0.0158 1.44773 0 2.26213 -0.81437 2.26213 -2.26214 0 -1.38214 -0.7422 -2.187 -2.06915 -2.25714" stroke-width="0.7"></path>
    <path stroke="currentColor" stroke-linecap="round" stroke-linejoin="round" d="M4.91098 5.48406c1.5949 0 2.49203 -0.89713 2.49203 -2.49203C7.40301 1.39713 6.50588 0.5 4.91098 0.5c-1.5949 0 -2.49203 0.89713 -2.49203 2.49203 0 1.5949 0.89713 2.49203 2.49203 2.49203Z" stroke-width="0.7"></path>
    <path stroke="currentColor" stroke-linecap="round" stroke-linejoin="round" d="M9 11.8125 10.6364 13.5c0.77 -2.2119 1.4113 -3.1825 2.8636 -4.5" stroke-width="0.7"></path>
  </g>
</svg>
